<svg xmlns="http://www.w3.org/2000/svg" viewBox="0 0 890 690"><rect width="890" height="690" style="fill:#fff"/><rect x="90" y="180" width="80" height="80" rx="6" style="fill:#e6e6e6"/><rect x="90" y="280" width="80" height="80" rx="6" style="fill:#e6e6e6"/><rect x="90" y="380" width="80" height="80" rx="6" style="fill:#e6e6e6"/><rect x="90" y="480" width="80" height="80" rx="6" style="fill:#e6e6e6"/><rect x="90" y="580" width="80" height="80" rx="6" style="fill:#e6e6e6"/><rect x="540" y="280" width="80" height="80" rx="6" style="fill:#e6e6e6"/><rect x="360" y="380" width="80" height="80" rx="6" style="fill:#e6e6e6"/><rect x="270" y="480" width="80" height="80" rx="6" style="fill:#e6e6e6"/><rect x="180" y="580" width="80" height="80" rx="6" style="fill:#e6e6e6"/><rect x="90" y="80" width="80" height="80" rx="6" style="fill:#e6e6e6"/><rect x="540" y="380" width="80" height="80" rx="6" style="fill:#e6e6e6"/><rect x="360" y="480" width="80" height="80" rx="6" style="fill:#e6e6e6"/><rect x="270" y="580" width="80" height="80" rx="6" style="fill:#e6e6e6"/><rect x="540" y="480" width="80" height="80" rx="6" style="fill:#e6e6e6"/><rect x="540" y="580" width="80" height="80" rx="6" style="fill:#e6e6e6"/><rect x="630" y="580" width="80" height="80" rx="6" style="fill:#e6e6e6"/><rect x="720" y="480" width="80" height="80" rx="6" style="fill:#e6e6e6"/><rect x="720" y="580" width="80" height="80" rx="6" style="fill:#e6e6e6"/><rect x="360" y="580" width="80" height="80" rx="6" style="fill:#e6e6e6"/><rect x="450" y="580" width="80" height="80" rx="6" style="fill:#e6e6e6"/><path d="M120.1,213l-2.49,8.71-9.7,1.45a20.77,20.77,0,0,0,.23,3.68c.25.53,2.76,4.31,2.76,4.31l4.36,2.81,1.56,1.66-1.31,2.18s-3.1,2.34-2.94,2.57.92,1.87.92,1.87l4.08.43s3.29-1.15,3.32-1.24,3-4.81,3-4.81,3.93-1.07,5.34,1.65l4.22-3.68L135.67,223s-1.85-3.63-1.88-3.75-5.28-5.05-5.28-5.05l-5.9,1.86Z" style="fill:#fff"/><path d="M113.39,208.44l-6.23,3.65-3.93,6.15s.84,4.1.94,4.07S112,224,112,224l6.53-2.61Z" style="fill:#fff"/><path d="M121.74,207.73l1.86-5.38-.82-5.35-3.41,1.46-1.92,1.33s-1.17-2.83-3-2.79l-3.26,3.84-.78,4.7-.88.92s.27,3,.88,3.17a3.7,3.7,0,0,0,1.13-.08l-3.42,1.91s-2.42,8.4,5.21,12.33c2.35.13,3.15.66,5.49-1.48a10.24,10.24,0,0,0,.58-10.48h0c0-.22-.05-.39-.05-.39Z" style="fill:#616161"/><path d="M125.87,214.72s13.4,9,4.24,21.59l-1,2.94,1.67,1.95L137,243l7.5-.62,5.06-3.69.43-3.9-1-5.85-3.29-5.63-4.59-5.4-4.74-2.86Z" style="fill:#616161"/><path d="M149.68,233.23l3.24-.54,3.69,1.84s.1,3.35.17,3.44-3.05,3.17-3.14,3.23l-2.38,1s-3.28.32-4.84-1l2.94-2.64Z" style="fill:#fff"/><path d="M118,221.24c-2.37,5.12-13.24,1-13.24,1a2,2,0,0,1-1.14-1.46l-.37-2a2,2,0,0,1,.25-1.39l1.94-3.22a9.42,9.42,0,0,1,3.9-3.58l3.72-1.84s3.55-10.85,9.32-11.76c0,0,4.59,4.66-3.48,15a13.86,13.86,0,0,1,3.62,4s15.26-8.88,24.9,10.37c9,17.84-8.33,16.73-14.21,15.89a4.44,4.44,0,0,1-3.46-2.46c-.66-1.43-.52-3.13,3.34-3.63" style="fill:none;stroke:#212121;stroke-linecap:round;stroke-linejoin:round;stroke-width:2px"/><path d="M109.11,226.88a7.39,7.39,0,0,0,6.67,6.82s1.46,1.8,0,3.33c0,0-1.35,1.17-2.45,2.26a2,2,0,0,0,1.41,3.42h3.89a2,2,0,0,0,1.7-.93l3.71-5.89,1.26-4" style="fill:none;stroke:#212121;stroke-linecap:round;stroke-linejoin:round;stroke-width:2px"/><path d="M153.11,233.7s4.91-.11,3.38,3.86a5.13,5.13,0,0,1-5,3.63" style="fill:none;stroke:#212121;stroke-linecap:round;stroke-linejoin:round;stroke-width:2px"/><path d="M110.42,205.92c-.15-3.06.75-7.23,4-8.92,0,0,1.94-.23,3.16,3.19" style="fill:none;stroke:#212121;stroke-linecap:round;stroke-linejoin:round;stroke-width:2px"/><path d="M120.1,313l-2.49,8.71-9.7,1.45a20.77,20.77,0,0,0,.23,3.68c.25.53,2.76,4.31,2.76,4.31l4.36,2.81,1.56,1.66-1.31,2.18s-3.1,2.34-2.94,2.57.92,1.87.92,1.87l4.08.43s3.29-1.15,3.32-1.24,3-4.81,3-4.81,3.93-1.07,5.34,1.65l4.22-3.68L135.67,323s-1.85-3.63-1.88-3.75-5.28-5.05-5.28-5.05l-5.9,1.86Z" style="fill:#fff"/><path d="M113.39,308.44l-6.23,3.65-3.93,6.15s.84,4.1.94,4.07S112,324,112,324l6.53-2.61Z" style="fill:#fff"/><path d="M121.74,307.73l1.86-5.38-.82-5.35-3.41,1.46-1.92,1.33s-1.17-2.83-3-2.79l-3.26,3.84-.78,4.7-.88.92s.27,3,.88,3.17a3.7,3.7,0,0,0,1.13-.08l-3.42,1.91s-2.42,8.4,5.21,12.33c2.35.13,3.15.66,5.49-1.48a10.24,10.24,0,0,0,.58-10.48h0c0-.22-.05-.39-.05-.39Z" style="fill:#616161"/><path d="M125.87,314.72s13.4,9,4.24,21.59l-1,2.94,1.67,1.95L137,343l7.5-.62,5.06-3.69.43-3.9-1-5.85-3.29-5.63-4.59-5.4-4.74-2.86Z" style="fill:#616161"/><path d="M149.68,333.23l3.24-.54,3.69,1.84s.1,3.35.17,3.44-3.05,3.17-3.14,3.23l-2.38,1s-3.28.32-4.84-1l2.94-2.64Z" style="fill:#fff"/><path d="M118,321.24c-2.37,5.12-13.24,1-13.24,1a2,2,0,0,1-1.14-1.46l-.37-2a2,2,0,0,1,.25-1.39l1.94-3.22a9.42,9.42,0,0,1,3.9-3.58l3.72-1.84s3.55-10.85,9.32-11.76c0,0,4.59,4.66-3.48,15a13.86,13.86,0,0,1,3.62,4s15.26-8.88,24.9,10.37c9,17.84-8.33,16.73-14.21,15.89a4.44,4.44,0,0,1-3.46-2.46c-.66-1.43-.52-3.13,3.34-3.63" style="fill:none;stroke:#212121;stroke-linecap:round;stroke-linejoin:round;stroke-width:2px"/><path d="M109.11,326.88a7.39,7.39,0,0,0,6.67,6.82s1.46,1.8,0,3.33c0,0-1.35,1.17-2.45,2.26a2,2,0,0,0,1.41,3.42h3.89a2,2,0,0,0,1.7-.93l3.71-5.89,1.26-4" style="fill:none;stroke:#212121;stroke-linecap:round;stroke-linejoin:round;stroke-width:2px"/><path d="M153.11,333.7s4.91-.11,3.38,3.86a5.13,5.13,0,0,1-5,3.63" style="fill:none;stroke:#212121;stroke-linecap:round;stroke-linejoin:round;stroke-width:2px"/><path d="M110.42,305.92c-.15-3.06.75-7.23,4-8.92,0,0,1.94-.23,3.16,3.19" style="fill:none;stroke:#212121;stroke-linecap:round;stroke-linejoin:round;stroke-width:2px"/><path d="M120.1,413l-2.49,8.71-9.7,1.45a20.77,20.77,0,0,0,.23,3.68c.25.53,2.76,4.31,2.76,4.31l4.36,2.81,1.56,1.66-1.31,2.18s-3.1,2.34-2.94,2.57.92,1.87.92,1.87l4.08.43s3.29-1.15,3.32-1.24,3-4.81,3-4.81,3.93-1.07,5.34,1.65l4.22-3.68L135.67,423s-1.85-3.63-1.88-3.75-5.28-5.05-5.28-5.05l-5.9,1.86Z" style="fill:#fff"/><path d="M113.39,408.44l-6.23,3.65-3.93,6.15s.84,4.1.94,4.07S112,424,112,424l6.53-2.61Z" style="fill:#fff"/><path d="M121.74,407.73l1.86-5.38-.82-5.35-3.41,1.46-1.92,1.33s-1.17-2.83-3-2.79l-3.26,3.84-.78,4.7-.88.92s.27,3,.88,3.17a3.7,3.7,0,0,0,1.13-.08l-3.42,1.91s-2.42,8.4,5.21,12.33c2.35.13,3.15.66,5.49-1.48a10.24,10.24,0,0,0,.58-10.48h0c0-.22-.05-.39-.05-.39Z" style="fill:#616161"/><path d="M125.87,414.72s13.4,9,4.24,21.59l-1,2.94,1.67,1.95L137,443l7.5-.62,5.06-3.69.43-3.9-1-5.85-3.29-5.63-4.59-5.4-4.74-2.86Z" style="fill:#616161"/><path d="M149.68,433.23l3.24-.54,3.69,1.84s.1,3.35.17,3.44-3.05,3.17-3.14,3.23l-2.38,1s-3.28.32-4.84-1l2.94-2.64Z" style="fill:#fff"/><path d="M118,421.24c-2.37,5.12-13.24,1-13.24,1a2,2,0,0,1-1.14-1.46l-.37-2a2,2,0,0,1,.25-1.39l1.94-3.22a9.42,9.42,0,0,1,3.9-3.58l3.72-1.84s3.55-10.85,9.32-11.76c0,0,4.59,4.66-3.48,15a13.86,13.86,0,0,1,3.62,4s15.26-8.88,24.9,10.37c9,17.84-8.33,16.73-14.21,15.89a4.44,4.44,0,0,1-3.46-2.46c-.66-1.43-.52-3.13,3.34-3.63" style="fill:none;stroke:#212121;stroke-linecap:round;stroke-linejoin:round;stroke-width:2px"/><path d="M109.11,426.88a7.39,7.39,0,0,0,6.67,6.82s1.46,1.8,0,3.33c0,0-1.35,1.17-2.45,2.26a2,2,0,0,0,1.41,3.42h3.89a2,2,0,0,0,1.7-.93l3.71-5.89,1.26-4" style="fill:none;stroke:#212121;stroke-linecap:round;stroke-linejoin:round;stroke-width:2px"/><path d="M153.11,433.7s4.91-.11,3.38,3.86a5.13,5.13,0,0,1-5,3.63" style="fill:none;stroke:#212121;stroke-linecap:round;stroke-linejoin:round;stroke-width:2px"/><path d="M110.42,405.92c-.15-3.06.75-7.23,4-8.92,0,0,1.94-.23,3.16,3.19" style="fill:none;stroke:#212121;stroke-linecap:round;stroke-linejoin:round;stroke-width:2px"/><path d="M120.1,513l-2.49,8.71-9.7,1.45a20.77,20.77,0,0,0,.23,3.68c.25.53,2.76,4.31,2.76,4.31l4.36,2.81,1.56,1.66-1.31,2.18s-3.1,2.34-2.94,2.57.92,1.87.92,1.87l4.08.43s3.29-1.15,3.32-1.24,3-4.81,3-4.81,3.93-1.07,5.34,1.65l4.22-3.68L135.67,523s-1.85-3.63-1.88-3.75-5.28-5.05-5.28-5.05l-5.9,1.86Z" style="fill:#fff"/><path d="M113.39,508.44l-6.23,3.65-3.93,6.15s.84,4.1.94,4.07S112,524,112,524l6.53-2.61Z" style="fill:#fff"/><path d="M121.74,507.73l1.86-5.38-.82-5.35-3.41,1.46-1.92,1.33s-1.17-2.83-3-2.79l-3.26,3.84-.78,4.7-.88.92s.27,3,.88,3.17a3.7,3.7,0,0,0,1.13-.08l-3.42,1.91s-2.42,8.4,5.21,12.33c2.35.13,3.15.66,5.49-1.48a10.24,10.24,0,0,0,.58-10.48h0c0-.22-.05-.39-.05-.39Z" style="fill:#616161"/><path d="M125.87,514.72s13.4,9,4.24,21.59l-1,2.94,1.67,2L137,543l7.5-.62,5.06-3.69.43-3.9-1-5.85-3.29-5.63-4.59-5.4-4.74-2.86Z" style="fill:#616161"/><path d="M149.68,533.23l3.24-.54,3.69,1.84s.1,3.35.17,3.44-3.05,3.17-3.14,3.23l-2.38,1s-3.28.32-4.84-1l2.94-2.64Z" style="fill:#fff"/><path d="M118,521.24c-2.37,5.12-13.24,1-13.24,1a2,2,0,0,1-1.14-1.46l-.37-2a2,2,0,0,1,.25-1.39l1.94-3.22a9.42,9.42,0,0,1,3.9-3.58l3.72-1.84s3.55-10.85,9.32-11.76c0,0,4.59,4.66-3.48,15a13.86,13.86,0,0,1,3.62,4s15.26-8.88,24.9,10.37c9,17.84-8.33,16.73-14.21,15.89a4.44,4.44,0,0,1-3.46-2.46c-.66-1.43-.52-3.13,3.34-3.63" style="fill:none;stroke:#212121;stroke-linecap:round;stroke-linejoin:round;stroke-width:2px"/><path d="M109.11,526.88a7.39,7.39,0,0,0,6.67,6.82s1.46,1.8,0,3.33c0,0-1.35,1.17-2.45,2.26a2,2,0,0,0,1.41,3.42h3.89a2,2,0,0,0,1.7-.93l3.71-5.89,1.26-4" style="fill:none;stroke:#212121;stroke-linecap:round;stroke-linejoin:round;stroke-width:2px"/><path d="M153.11,533.7s4.91-.11,3.38,3.86a5.13,5.13,0,0,1-5,3.63" style="fill:none;stroke:#212121;stroke-linecap:round;stroke-linejoin:round;stroke-width:2px"/><path d="M110.42,505.92c-.15-3.06.75-7.23,4-8.92,0,0,1.94-.23,3.16,3.19" style="fill:none;stroke:#212121;stroke-linecap:round;stroke-linejoin:round;stroke-width:2px"/><path d="M120.1,613l-2.49,8.71-9.7,1.45a20.77,20.77,0,0,0,.23,3.68c.25.53,2.76,4.31,2.76,4.31l4.36,2.81,1.56,1.66-1.31,2.18s-3.1,2.34-2.94,2.57.92,1.87.92,1.87l4.08.43s3.29-1.15,3.32-1.24,3-4.81,3-4.81,3.93-1.07,5.34,1.65l4.22-3.68L135.67,623s-1.85-3.63-1.88-3.75-5.28-5.05-5.28-5.05l-5.9,1.86Z" style="fill:#fff"/><path d="M113.39,608.44l-6.23,3.65-3.93,6.15s.84,4.1.94,4.07S112,624,112,624l6.53-2.61Z" style="fill:#fff"/><path d="M121.74,607.73l1.86-5.38-.82-5.35-3.41,1.46-1.92,1.33s-1.17-2.83-3-2.79l-3.26,3.84-.78,4.7-.88.92s.27,3,.88,3.17a3.7,3.7,0,0,0,1.13-.08l-3.42,1.91s-2.42,8.4,5.21,12.33c2.35.13,3.15.66,5.49-1.48a10.24,10.24,0,0,0,.58-10.48h0c0-.22-.05-.39-.05-.39Z" style="fill:#616161"/><path d="M125.87,614.72s13.4,9,4.24,21.59l-1,2.94,1.67,2L137,643l7.5-.62,5.06-3.69.43-3.9-1-5.85-3.29-5.63-4.59-5.4-4.74-2.86Z" style="fill:#616161"/><path d="M149.68,633.23l3.24-.54,3.69,1.84s.1,3.35.17,3.44-3.05,3.17-3.14,3.23l-2.38,1s-3.28.32-4.84-1l2.94-2.64Z" style="fill:#fff"/><path d="M118,621.24c-2.37,5.12-13.24,1-13.24,1a2,2,0,0,1-1.14-1.46l-.37-2a2,2,0,0,1,.25-1.39l1.94-3.22a9.42,9.42,0,0,1,3.9-3.58l3.72-1.84s3.55-10.85,9.32-11.76c0,0,4.59,4.66-3.48,15a13.86,13.86,0,0,1,3.62,4s15.26-8.88,24.9,10.37c9,17.84-8.33,16.73-14.21,15.89a4.44,4.44,0,0,1-3.46-2.46c-.66-1.43-.52-3.13,3.34-3.63" style="fill:none;stroke:#212121;stroke-linecap:round;stroke-linejoin:round;stroke-width:2px"/><path d="M109.11,626.88a7.39,7.39,0,0,0,6.67,6.82s1.46,1.8,0,3.33c0,0-1.35,1.17-2.45,2.26a2,2,0,0,0,1.41,3.42h3.89a2,2,0,0,0,1.7-.93l3.71-5.89,1.26-4" style="fill:none;stroke:#212121;stroke-linecap:round;stroke-linejoin:round;stroke-width:2px"/><path d="M153.11,633.7s4.91-.11,3.38,3.86a5.13,5.13,0,0,1-5,3.63" style="fill:none;stroke:#212121;stroke-linecap:round;stroke-linejoin:round;stroke-width:2px"/><path d="M110.42,605.92c-.15-3.06.75-7.23,4-8.92,0,0,1.94-.23,3.16,3.19" style="fill:none;stroke:#212121;stroke-linecap:round;stroke-linejoin:round;stroke-width:2px"/><path d="M573.07,322l-1.75,6.1-6.78,1a14,14,0,0,0,.16,2.57c.17.38,1.93,3,1.93,3l3,2,1.1,1.16-.92,1.53s-2.17,1.64-2.06,1.8.65,1.31.65,1.31l2.85.3s2.3-.81,2.32-.87,2.08-3.37,2.08-3.37,2.76-.74,3.74,1.16l2.95-2.58L584,329s-1.29-2.54-1.31-2.63-3.7-3.53-3.7-3.53l-4.14,1.3Z" style="fill:#fff"/><path d="M568.37,318.81,564,321.36l-2.75,4.31s.59,2.87.66,2.85,5.51,1.14,5.51,1.14l4.57-1.82Z" style="fill:#fff"/><path d="M574.22,318.31l1.3-3.76L575,310.8l-2.39,1-1.35.94s-.81-2-2.09-2l-2.28,2.69-.55,3.29-.62.64s.19,2.12.62,2.22a2.57,2.57,0,0,0,.79-.05l-2.4,1.33s-1.69,5.88,3.65,8.64c1.64.09,2.21.45,3.85-1a7.17,7.17,0,0,0,.4-7.34h0c0-.15,0-.27,0-.27Z" style="fill:#2196f3"/><path d="M577.11,323.21s9.38,6.27,3,15.11l-.73,2.06,1.17,1.36,4.34,1.26,5.25-.44,3.55-2.58.3-2.72-.7-4.1-2.3-3.94-3.21-3.78-3.32-2Z" style="fill:#2196f3"/><path d="M593.77,336.16l2.27-.38,2.58,1.29s.08,2.34.13,2.41-2.14,2.22-2.2,2.26-1.67.67-1.67.67-2.29.23-3.39-.67l2.06-1.85Z" style="fill:#fff"/><path d="M571.6,327.77c-1.66,3.58-9.27.72-9.27.72a1.41,1.41,0,0,1-.8-1l-.26-1.41a1.45,1.45,0,0,1,.18-1l1.36-2.25a6.61,6.61,0,0,1,2.73-2.51l2.6-1.29s2.48-7.6,6.53-8.23c0,0,3.21,3.26-2.44,10.52a9.75,9.75,0,0,1,2.53,2.82s10.68-6.21,17.44,7.26c6.26,12.49-5.84,11.71-10,11.13a3.13,3.13,0,0,1-2.43-1.73c-.46-1-.36-2.19,2.35-2.54" style="fill:none;stroke:#0d47a1;stroke-linecap:round;stroke-linejoin:round;stroke-width:2px"/><path d="M565.38,331.71a5.16,5.16,0,0,0,4.67,4.78,1.8,1.8,0,0,1,0,2.33s-.95.82-1.72,1.58a1.4,1.4,0,0,0,1,2.4H572a1.43,1.43,0,0,0,1.19-.65l2.6-4.13.88-2.77" style="fill:none;stroke:#0d47a1;stroke-linecap:round;stroke-linejoin:round;stroke-width:2px"/><path d="M596.18,336.49s3.43-.08,2.36,2.7a3.58,3.58,0,0,1-3.53,2.54" style="fill:none;stroke:#0d47a1;stroke-linecap:round;stroke-linejoin:round;stroke-width:2px"/><path d="M566.3,317c-.11-2.14.52-5.06,2.82-6.24,0,0,1.35-.16,2.21,2.23" style="fill:none;stroke:#0d47a1;stroke-linecap:round;stroke-linejoin:round;stroke-width:2px"/><path d="M393.07,422l-1.75,6.1-6.78,1a14,14,0,0,0,.16,2.57c.17.38,1.93,3,1.93,3l3.05,2,1.1,1.16-.92,1.53s-2.17,1.64-2.06,1.8.65,1.31.65,1.31l2.85.3s2.3-.81,2.32-.87,2.08-3.37,2.08-3.37,2.76-.74,3.74,1.16l2.95-2.58L404,429s-1.29-2.54-1.31-2.63-3.7-3.53-3.7-3.53l-4.14,1.3Z" style="fill:#fff"/><path d="M388.37,418.81,384,421.36l-2.75,4.31s.59,2.87.66,2.85,5.51,1.14,5.51,1.14l4.57-1.82Z" style="fill:#fff"/><path d="M394.22,418.31l1.3-3.76L395,410.8l-2.39,1-1.35.94s-.81-2-2.09-2l-2.28,2.69-.55,3.29-.62.64s.19,2.12.62,2.22a2.57,2.57,0,0,0,.79-.05l-2.4,1.33s-1.69,5.88,3.65,8.64c1.64.09,2.21.45,3.85-1a7.17,7.17,0,0,0,.4-7.34h0c0-.15,0-.27,0-.27Z" style="fill:#4caf50"/><path d="M397.11,423.21s9.38,6.27,3,15.11l-.73,2.06,1.17,1.36,4.34,1.26,5.25-.44,3.55-2.58.3-2.72-.7-4.1-2.3-3.94-3.21-3.78-3.32-2Z" style="fill:#4caf50"/><path d="M413.77,436.16l2.27-.38,2.58,1.29s.08,2.34.13,2.41-2.14,2.22-2.2,2.26-1.67.67-1.67.67-2.29.23-3.39-.67l2.06-1.85Z" style="fill:#fff"/><path d="M391.6,427.77c-1.66,3.58-9.27.72-9.27.72a1.41,1.41,0,0,1-.8-1l-.26-1.41a1.45,1.45,0,0,1,.18-1l1.36-2.25a6.61,6.61,0,0,1,2.73-2.51l2.6-1.29s2.48-7.6,6.53-8.23c0,0,3.21,3.26-2.44,10.52a9.75,9.75,0,0,1,2.53,2.82s10.68-6.21,17.44,7.26c6.26,12.49-5.84,11.71-9.95,11.13a3.13,3.13,0,0,1-2.43-1.73c-.46-1-.36-2.19,2.35-2.54" style="fill:none;stroke:#1b5e20;stroke-linecap:round;stroke-linejoin:round;stroke-width:2px"/><path d="M385.38,431.71a5.16,5.16,0,0,0,4.67,4.78,1.8,1.8,0,0,1,0,2.33s-.95.82-1.72,1.58a1.4,1.4,0,0,0,1,2.4H392a1.43,1.43,0,0,0,1.19-.65l2.6-4.13.88-2.77" style="fill:none;stroke:#1b5e20;stroke-linecap:round;stroke-linejoin:round;stroke-width:2px"/><path d="M416.18,436.49s3.43-.08,2.36,2.7a3.58,3.58,0,0,1-3.53,2.54" style="fill:none;stroke:#1b5e20;stroke-linecap:round;stroke-linejoin:round;stroke-width:2px"/><path d="M386.3,417c-.11-2.14.52-5.06,2.82-6.24,0,0,1.35-.16,2.21,2.23" style="fill:none;stroke:#1b5e20;stroke-linecap:round;stroke-linejoin:round;stroke-width:2px"/><path d="M303.07,522l-1.75,6.1-6.78,1a14,14,0,0,0,.16,2.57c.17.38,1.93,3,1.93,3l3.05,2,1.1,1.16-.92,1.53s-2.17,1.64-2.06,1.8.65,1.31.65,1.31l2.85.3s2.3-.81,2.32-.87,2.08-3.37,2.08-3.37,2.76-.74,3.74,1.16l2.95-2.58L314,529s-1.29-2.54-1.31-2.63-3.7-3.53-3.7-3.53l-4.14,1.3Z" style="fill:#fff"/><path d="M298.37,518.81,294,521.36l-2.75,4.31s.59,2.87.66,2.85,5.51,1.14,5.51,1.14l4.57-1.82Z" style="fill:#fff"/><path d="M304.22,518.31l1.3-3.76L305,510.8l-2.39,1-1.35.94s-.81-2-2.09-2l-2.28,2.69-.55,3.29-.62.64s.19,2.12.62,2.22a2.57,2.57,0,0,0,.79,0l-2.4,1.33s-1.69,5.88,3.65,8.64c1.64.09,2.21.45,3.85-1a7.17,7.17,0,0,0,.4-7.34h0c0-.15,0-.27,0-.27Z" style="fill:#ff9800"/><path d="M307.11,523.21s9.38,6.27,3,15.11l-.73,2.06,1.17,1.36,4.34,1.26,5.25-.44,3.55-2.58.3-2.72-.7-4.1-2.3-3.94-3.21-3.78-3.32-2Z" style="fill:#ff9800"/><path d="M323.77,536.16l2.27-.38,2.58,1.29s.08,2.34.13,2.41-2.14,2.22-2.2,2.26-1.67.67-1.67.67-2.29.23-3.39-.67l2.06-1.85Z" style="fill:#fff"/><path d="M301.6,527.77c-1.66,3.58-9.27.72-9.27.72a1.41,1.41,0,0,1-.8-1l-.26-1.41a1.45,1.45,0,0,1,.18-1l1.36-2.25a6.61,6.61,0,0,1,2.73-2.51l2.6-1.29s2.48-7.6,6.53-8.23c0,0,3.21,3.26-2.44,10.52a9.75,9.75,0,0,1,2.53,2.82s10.68-6.21,17.44,7.26c6.26,12.49-5.84,11.71-9.95,11.13a3.13,3.13,0,0,1-2.43-1.73c-.46-1-.36-2.19,2.35-2.54" style="fill:none;stroke:#e65100;stroke-linecap:round;stroke-linejoin:round;stroke-width:2px"/><path d="M295.38,531.71a5.16,5.16,0,0,0,4.67,4.78,1.8,1.8,0,0,1,0,2.33s-.95.82-1.72,1.58a1.4,1.4,0,0,0,1,2.4H302a1.43,1.43,0,0,0,1.19-.65l2.6-4.13.88-2.77" style="fill:none;stroke:#e65100;stroke-linecap:round;stroke-linejoin:round;stroke-width:2px"/><path d="M326.18,536.49s3.43-.08,2.36,2.7a3.58,3.58,0,0,1-3.53,2.54" style="fill:none;stroke:#e65100;stroke-linecap:round;stroke-linejoin:round;stroke-width:2px"/><path d="M296.3,517c-.11-2.14.52-5.06,2.82-6.24,0,0,1.35-.16,2.21,2.23" style="fill:none;stroke:#e65100;stroke-linecap:round;stroke-linejoin:round;stroke-width:2px"/><path d="M213.07,622l-1.75,6.1-6.78,1a14,14,0,0,0,.16,2.57c.17.38,1.93,3,1.93,3l3.05,2,1.1,1.16-.92,1.53s-2.17,1.64-2.06,1.8.65,1.31.65,1.31l2.85.3s2.3-.81,2.32-.87,2.08-3.37,2.08-3.37,2.76-.74,3.74,1.16l2.95-2.58L224,629s-1.29-2.54-1.31-2.63-3.7-3.53-3.7-3.53l-4.14,1.3Z" style="fill:#fff"/><path d="M208.37,618.81,204,621.36l-2.75,4.31s.59,2.87.66,2.85,5.51,1.14,5.51,1.14l4.57-1.82Z" style="fill:#fff"/><path d="M214.22,618.31l1.3-3.76L215,610.8l-2.39,1-1.35.94s-.81-2-2.09-2l-2.28,2.69-.55,3.29-.62.64s.19,2.12.62,2.22a2.57,2.57,0,0,0,.79,0l-2.4,1.33s-1.69,5.88,3.65,8.64c1.64.09,2.21.45,3.85-1a7.17,7.17,0,0,0,.4-7.34h0c0-.15,0-.27,0-.27Z" style="fill:#f44336"/><path d="M217.11,623.21s9.38,6.27,3,15.11l-.73,2.06,1.17,1.36,4.34,1.26,5.25-.44,3.55-2.58.3-2.72-.7-4.1-2.3-3.94-3.21-3.78-3.32-2Z" style="fill:#f44336"/><path d="M233.77,636.16l2.27-.38,2.58,1.29s.08,2.34.13,2.41-2.14,2.22-2.2,2.26-1.67.67-1.67.67-2.29.23-3.39-.67l2.06-1.85Z" style="fill:#fff"/><path d="M211.6,627.77c-1.66,3.58-9.27.72-9.27.72a1.41,1.41,0,0,1-.8-1l-.26-1.41a1.45,1.45,0,0,1,.18-1l1.36-2.25a6.61,6.61,0,0,1,2.73-2.51l2.6-1.29s2.48-7.6,6.53-8.23c0,0,3.21,3.26-2.44,10.52a9.75,9.75,0,0,1,2.53,2.82s10.68-6.21,17.44,7.26c6.26,12.49-5.84,11.71-9.95,11.13a3.13,3.13,0,0,1-2.43-1.73c-.46-1-.36-2.19,2.35-2.54" style="fill:none;stroke:#b71c1c;stroke-linecap:round;stroke-linejoin:round;stroke-width:2px"/><path d="M205.38,631.71a5.16,5.16,0,0,0,4.67,4.78,1.8,1.8,0,0,1,0,2.33s-1,.82-1.72,1.58a1.4,1.4,0,0,0,1,2.4H212a1.43,1.43,0,0,0,1.19-.65l2.6-4.13.88-2.77" style="fill:none;stroke:#b71c1c;stroke-linecap:round;stroke-linejoin:round;stroke-width:2px"/><path d="M236.18,636.49s3.43-.08,2.36,2.7a3.58,3.58,0,0,1-3.53,2.54" style="fill:none;stroke:#b71c1c;stroke-linecap:round;stroke-linejoin:round;stroke-width:2px"/><path d="M206.3,617c-.11-2.14.52-5.06,2.82-6.24,0,0,1.35-.16,2.21,2.23" style="fill:none;stroke:#b71c1c;stroke-linecap:round;stroke-linejoin:round;stroke-width:2px"/><path d="M570.1,413l-2.49,8.71-9.7,1.45a20.77,20.77,0,0,0,.23,3.68c.25.53,2.76,4.31,2.76,4.31l4.36,2.81,1.56,1.66-1.31,2.18s-3.1,2.34-2.94,2.57.92,1.87.92,1.87l4.08.43s3.29-1.15,3.32-1.24,3-4.81,3-4.81,3.93-1.07,5.34,1.65l4.22-3.68L585.67,423s-1.85-3.63-1.88-3.75-5.28-5.05-5.28-5.05l-5.9,1.86Z" style="fill:#fff"/><path d="M563.39,408.44l-6.23,3.65-3.93,6.15s.84,4.1.94,4.07S562,424,562,424l6.53-2.61Z" style="fill:#fff"/><path d="M571.74,407.73l1.86-5.38-.82-5.35-3.41,1.46-1.92,1.33s-1.17-2.83-3-2.79l-3.26,3.84-.78,4.7-.88.92s.27,3,.88,3.17a3.7,3.7,0,0,0,1.13-.08l-3.42,1.91s-2.42,8.4,5.21,12.33c2.35.13,3.15.66,5.49-1.48a10.24,10.24,0,0,0,.58-10.48h0c0-.22,0-.39,0-.39Z" style="fill:#2196f3"/><path d="M575.87,414.72s13.4,9,4.24,21.59l-1,2.94,1.67,1.95L587,443l7.5-.62,5.06-3.69.43-3.9-1-5.85-3.29-5.63-4.59-5.4-4.74-2.86Z" style="fill:#2196f3"/><path d="M599.68,433.23l3.24-.54,3.69,1.84s.1,3.35.17,3.44-3,3.17-3.14,3.23l-2.38,1s-3.28.32-4.84-1l2.94-2.64Z" style="fill:#fff"/><path d="M568,421.24c-2.37,5.12-13.24,1-13.24,1a2,2,0,0,1-1.14-1.46l-.37-2a2,2,0,0,1,.25-1.39l1.94-3.22a9.42,9.42,0,0,1,3.9-3.58l3.72-1.84s3.55-10.85,9.32-11.76c0,0,4.59,4.66-3.48,15a13.86,13.86,0,0,1,3.62,4s15.26-8.88,24.9,10.37c9,17.84-8.33,16.73-14.21,15.89a4.44,4.44,0,0,1-3.46-2.46c-.66-1.43-.52-3.13,3.34-3.63" style="fill:none;stroke:#0d47a1;stroke-linecap:round;stroke-linejoin:round;stroke-width:2px"/><path d="M559.11,426.88a7.39,7.39,0,0,0,6.67,6.82s1.46,1.8,0,3.33c0,0-1.35,1.17-2.45,2.26a2,2,0,0,0,1.41,3.42h3.89a2,2,0,0,0,1.7-.93l3.71-5.89,1.26-4" style="fill:none;stroke:#0d47a1;stroke-linecap:round;stroke-linejoin:round;stroke-width:2px"/><path d="M603.11,433.7s4.91-.11,3.38,3.86a5.13,5.13,0,0,1-5,3.63" style="fill:none;stroke:#0d47a1;stroke-linecap:round;stroke-linejoin:round;stroke-width:2px"/><path d="M560.42,405.92c-.15-3.06.75-7.23,4-8.92,0,0,1.94-.23,3.16,3.19" style="fill:none;stroke:#0d47a1;stroke-linecap:round;stroke-linejoin:round;stroke-width:2px"/><path d="M390.1,513l-2.49,8.71-9.7,1.45a20.77,20.77,0,0,0,.23,3.68c.25.53,2.76,4.31,2.76,4.31l4.36,2.81,1.56,1.66-1.31,2.18s-3.1,2.34-2.94,2.57.92,1.87.92,1.87l4.08.43s3.29-1.15,3.32-1.24,3-4.81,3-4.81,3.93-1.07,5.34,1.65l4.22-3.68L405.67,523s-1.85-3.63-1.88-3.75-5.28-5.05-5.28-5.05l-5.9,1.86Z" style="fill:#fff"/><path d="M383.39,508.44l-6.23,3.65-3.93,6.15s.84,4.1.94,4.07S382,524,382,524l6.53-2.61Z" style="fill:#fff"/><path d="M391.74,507.73l1.86-5.38-.82-5.35-3.41,1.46-1.92,1.33s-1.17-2.83-3-2.79l-3.26,3.84-.78,4.7-.88.92s.27,3,.88,3.17a3.7,3.7,0,0,0,1.13-.08l-3.42,1.91s-2.42,8.4,5.21,12.33c2.35.13,3.15.66,5.49-1.48a10.24,10.24,0,0,0,.58-10.48h0c0-.22,0-.39,0-.39Z" style="fill:#4caf50"/><path d="M395.87,514.72s13.4,9,4.24,21.59l-1,2.94,1.67,2L407,543l7.5-.62,5.06-3.69.43-3.9-1-5.85-3.29-5.63-4.59-5.4-4.74-2.86Z" style="fill:#4caf50"/><path d="M419.68,533.23l3.24-.54,3.69,1.84s.1,3.35.17,3.44-3,3.17-3.14,3.23l-2.38,1s-3.28.32-4.84-1l2.94-2.64Z" style="fill:#fff"/><path d="M388,521.24c-2.37,5.12-13.24,1-13.24,1a2,2,0,0,1-1.14-1.46l-.37-2a2,2,0,0,1,.25-1.39l1.94-3.22a9.42,9.42,0,0,1,3.9-3.58l3.72-1.84s3.55-10.85,9.32-11.76c0,0,4.59,4.66-3.48,15a13.86,13.86,0,0,1,3.62,4s15.26-8.88,24.9,10.37c8.95,17.84-8.33,16.73-14.21,15.89a4.44,4.44,0,0,1-3.46-2.46c-.66-1.43-.52-3.13,3.34-3.63" style="fill:none;stroke:#1b5e20;stroke-linecap:round;stroke-linejoin:round;stroke-width:2px"/><path d="M379.11,526.88a7.39,7.39,0,0,0,6.67,6.82s1.46,1.8,0,3.33c0,0-1.35,1.17-2.45,2.26a2,2,0,0,0,1.41,3.42h3.89a2,2,0,0,0,1.7-.93l3.71-5.89,1.26-4" style="fill:none;stroke:#1b5e20;stroke-linecap:round;stroke-linejoin:round;stroke-width:2px"/><path d="M423.11,533.7s4.91-.11,3.38,3.86a5.13,5.13,0,0,1-5,3.63" style="fill:none;stroke:#1b5e20;stroke-linecap:round;stroke-linejoin:round;stroke-width:2px"/><path d="M380.42,505.92c-.15-3.06.75-7.23,4-8.92,0,0,1.94-.23,3.16,3.19" style="fill:none;stroke:#1b5e20;stroke-linecap:round;stroke-linejoin:round;stroke-width:2px"/><path d="M300.1,613l-2.49,8.71-9.7,1.45a20.77,20.77,0,0,0,.23,3.68c.25.53,2.76,4.31,2.76,4.31l4.36,2.81,1.56,1.66-1.31,2.18s-3.1,2.34-2.94,2.57.92,1.87.92,1.87l4.08.43s3.29-1.15,3.32-1.24,3-4.81,3-4.81,3.93-1.07,5.34,1.65l4.22-3.68L315.67,623s-1.85-3.63-1.88-3.75-5.28-5.05-5.28-5.05l-5.9,1.86Z" style="fill:#fff"/><path d="M293.39,608.44l-6.23,3.65-3.93,6.15s.84,4.1.94,4.07S292,624,292,624l6.53-2.61Z" style="fill:#fff"/><path d="M301.74,607.73l1.86-5.38-.82-5.35-3.41,1.46-1.92,1.33s-1.17-2.83-3-2.79l-3.26,3.84-.78,4.7-.88.92s.27,3,.88,3.17a3.7,3.7,0,0,0,1.13-.08l-3.42,1.91s-2.42,8.4,5.21,12.33c2.35.13,3.15.66,5.49-1.48a10.24,10.24,0,0,0,.58-10.48h0c0-.22,0-.39,0-.39Z" style="fill:#ff9800"/><path d="M305.87,614.72s13.4,9,4.24,21.59l-1,2.94,1.67,2L317,643l7.5-.62,5.06-3.69.43-3.9-1-5.85-3.29-5.63-4.59-5.4-4.74-2.86Z" style="fill:#ff9800"/><path d="M329.68,633.23l3.24-.54,3.69,1.84s.1,3.35.17,3.44-3,3.17-3.14,3.23l-2.38,1s-3.28.32-4.84-1l2.94-2.64Z" style="fill:#fff"/><path d="M298,621.24c-2.37,5.12-13.24,1-13.24,1a2,2,0,0,1-1.14-1.46l-.37-2a2,2,0,0,1,.25-1.39l1.94-3.22a9.42,9.42,0,0,1,3.9-3.58l3.72-1.84s3.55-10.85,9.32-11.76c0,0,4.59,4.66-3.48,15a13.86,13.86,0,0,1,3.62,4s15.26-8.88,24.9,10.37c8.95,17.84-8.33,16.73-14.21,15.89a4.44,4.44,0,0,1-3.46-2.46c-.66-1.43-.52-3.13,3.34-3.63" style="fill:none;stroke:#e65100;stroke-linecap:round;stroke-linejoin:round;stroke-width:2px"/><path d="M289.11,626.88a7.39,7.39,0,0,0,6.67,6.82s1.46,1.8,0,3.33c0,0-1.35,1.17-2.45,2.26a2,2,0,0,0,1.41,3.42h3.89a2,2,0,0,0,1.7-.93l3.71-5.89,1.26-4" style="fill:none;stroke:#e65100;stroke-linecap:round;stroke-linejoin:round;stroke-width:2px"/><path d="M333.11,633.7s4.91-.11,3.38,3.86a5.13,5.13,0,0,1-5,3.63" style="fill:none;stroke:#e65100;stroke-linecap:round;stroke-linejoin:round;stroke-width:2px"/><path d="M290.42,605.92c-.15-3.06.75-7.23,4-8.92,0,0,1.94-.23,3.16,3.19" style="fill:none;stroke:#e65100;stroke-linecap:round;stroke-linejoin:round;stroke-width:2px"/><path d="M570.1,513l-2.49,8.71-9.7,1.45a20.77,20.77,0,0,0,.23,3.68c.25.53,2.76,4.31,2.76,4.31l4.36,2.81,1.56,1.66-1.31,2.18s-3.1,2.34-2.94,2.57.92,1.87.92,1.87l4.08.43s3.29-1.15,3.32-1.24,3-4.81,3-4.81,3.93-1.07,5.34,1.65l4.22-3.68L585.67,523s-1.85-3.63-1.88-3.75-5.28-5.05-5.28-5.05l-5.9,1.86Z" style="fill:#fff"/><path d="M563.39,508.44l-6.23,3.65-3.93,6.15s.84,4.1.94,4.07S562,524,562,524l6.53-2.61Z" style="fill:#fff"/><path d="M571.74,507.73l1.86-5.38-.82-5.35-3.41,1.46-1.92,1.33s-1.17-2.83-3-2.79l-3.26,3.84-.78,4.7-.88.92s.27,3,.88,3.17a3.7,3.7,0,0,0,1.13-.08l-3.42,1.91s-2.42,8.4,5.21,12.33c2.35.13,3.15.66,5.49-1.48a10.24,10.24,0,0,0,.58-10.48h0c0-.22,0-.39,0-.39Z" style="fill:#2196f3"/><path d="M575.87,514.72s13.4,9,4.24,21.59l-1,2.94,1.67,2L587,543l7.5-.62,5.06-3.69.43-3.9-1-5.85-3.29-5.63-4.59-5.4-4.74-2.86Z" style="fill:#2196f3"/><path d="M599.68,533.23l3.24-.54,3.69,1.84s.1,3.35.17,3.44-3,3.17-3.14,3.23l-2.38,1s-3.28.32-4.84-1l2.94-2.64Z" style="fill:#fff"/><path d="M568,521.24c-2.37,5.12-13.24,1-13.24,1a2,2,0,0,1-1.14-1.46l-.37-2a2,2,0,0,1,.25-1.39l1.94-3.22a9.42,9.42,0,0,1,3.9-3.58l3.72-1.84s3.55-10.85,9.32-11.76c0,0,4.59,4.66-3.48,15a13.86,13.86,0,0,1,3.62,4s15.26-8.88,24.9,10.37c9,17.84-8.33,16.73-14.21,15.89a4.44,4.44,0,0,1-3.46-2.46c-.66-1.43-.52-3.13,3.34-3.63" style="fill:none;stroke:#0d47a1;stroke-linecap:round;stroke-linejoin:round;stroke-width:2px"/><path d="M559.11,526.88a7.39,7.39,0,0,0,6.67,6.82s1.46,1.8,0,3.33c0,0-1.35,1.17-2.45,2.26a2,2,0,0,0,1.41,3.42h3.89a2,2,0,0,0,1.7-.93l3.71-5.89,1.26-4" style="fill:none;stroke:#0d47a1;stroke-linecap:round;stroke-linejoin:round;stroke-width:2px"/><path d="M603.11,533.7s4.91-.11,3.38,3.86a5.13,5.13,0,0,1-5,3.63" style="fill:none;stroke:#0d47a1;stroke-linecap:round;stroke-linejoin:round;stroke-width:2px"/><path d="M560.42,505.92c-.15-3.06.75-7.23,4-8.92,0,0,1.94-.23,3.16,3.19" style="fill:none;stroke:#0d47a1;stroke-linecap:round;stroke-linejoin:round;stroke-width:2px"/><path d="M390.1,613l-2.49,8.71-9.7,1.45a20.77,20.77,0,0,0,.23,3.68c.25.53,2.76,4.31,2.76,4.31l4.36,2.81,1.56,1.66-1.31,2.18s-3.1,2.34-2.94,2.57.92,1.87.92,1.87l4.08.43s3.29-1.15,3.32-1.24,3-4.81,3-4.81,3.93-1.07,5.34,1.65l4.22-3.68L405.67,623s-1.85-3.63-1.88-3.75-5.28-5.05-5.28-5.05l-5.9,1.86Z" style="fill:#fff"/><path d="M383.39,608.44l-6.23,3.65-3.93,6.15s.84,4.1.94,4.07S382,624,382,624l6.53-2.61Z" style="fill:#fff"/><path d="M391.74,607.73l1.86-5.38-.82-5.35-3.41,1.46-1.92,1.33s-1.17-2.83-3-2.79l-3.26,3.84-.78,4.7-.88.92s.27,3,.88,3.17a3.7,3.7,0,0,0,1.13-.08l-3.42,1.91s-2.42,8.4,5.21,12.33c2.35.13,3.15.66,5.49-1.48a10.24,10.24,0,0,0,.58-10.48h0c0-.22,0-.39,0-.39Z" style="fill:#4caf50"/><path d="M395.87,614.72s13.4,9,4.24,21.59l-1,2.94,1.67,2L407,643l7.5-.62,5.06-3.69.43-3.9-1-5.85-3.29-5.63-4.59-5.4-4.74-2.86Z" style="fill:#4caf50"/><path d="M419.68,633.23l3.24-.54,3.69,1.84s.1,3.35.17,3.44-3,3.17-3.14,3.23l-2.38,1s-3.28.32-4.84-1l2.94-2.64Z" style="fill:#fff"/><path d="M388,621.24c-2.37,5.12-13.24,1-13.24,1a2,2,0,0,1-1.14-1.46l-.37-2a2,2,0,0,1,.25-1.39l1.94-3.22a9.42,9.42,0,0,1,3.9-3.58l3.72-1.84s3.55-10.85,9.32-11.76c0,0,4.59,4.66-3.48,15a13.86,13.86,0,0,1,3.62,4s15.26-8.88,24.9,10.37c8.95,17.84-8.33,16.73-14.21,15.89a4.44,4.44,0,0,1-3.46-2.46c-.66-1.43-.52-3.13,3.34-3.63" style="fill:none;stroke:#1b5e20;stroke-linecap:round;stroke-linejoin:round;stroke-width:2px"/><path d="M379.11,626.88a7.39,7.39,0,0,0,6.67,6.82s1.46,1.8,0,3.33c0,0-1.35,1.17-2.45,2.26a2,2,0,0,0,1.41,3.42h3.89a2,2,0,0,0,1.7-.93l3.71-5.89,1.26-4" style="fill:none;stroke:#1b5e20;stroke-linecap:round;stroke-linejoin:round;stroke-width:2px"/><path d="M423.11,633.7s4.91-.11,3.38,3.86a5.13,5.13,0,0,1-5,3.63" style="fill:none;stroke:#1b5e20;stroke-linecap:round;stroke-linejoin:round;stroke-width:2px"/><path d="M380.42,605.92c-.15-3.06.75-7.23,4-8.92,0,0,1.94-.23,3.16,3.19" style="fill:none;stroke:#1b5e20;stroke-linecap:round;stroke-linejoin:round;stroke-width:2px"/><path d="M570.1,613l-2.49,8.71-9.7,1.45a20.77,20.77,0,0,0,.23,3.68c.25.53,2.76,4.31,2.76,4.31l4.36,2.81,1.56,1.66-1.31,2.18s-3.1,2.34-2.94,2.57.92,1.87.92,1.87l4.08.43s3.29-1.15,3.32-1.24,3-4.81,3-4.81,3.93-1.07,5.34,1.65l4.22-3.68L585.67,623s-1.85-3.63-1.88-3.75-5.28-5.05-5.28-5.05l-5.9,1.86Z" style="fill:#fff"/><path d="M563.39,608.44l-6.23,3.65-3.93,6.15s.84,4.1.94,4.07S562,624,562,624l6.53-2.61Z" style="fill:#fff"/><path d="M571.74,607.73l1.86-5.38-.82-5.35-3.41,1.46-1.92,1.33s-1.17-2.83-3-2.79l-3.26,3.84-.78,4.7-.88.92s.27,3,.88,3.17a3.7,3.7,0,0,0,1.13-.08l-3.42,1.91s-2.42,8.4,5.21,12.33c2.35.13,3.15.66,5.49-1.48a10.24,10.24,0,0,0,.58-10.48h0c0-.22,0-.39,0-.39Z" style="fill:#2196f3"/><path d="M575.87,614.72s13.4,9,4.24,21.59l-1,2.94,1.67,2L587,643l7.5-.62,5.06-3.69.43-3.9-1-5.85-3.29-5.63-4.59-5.4-4.74-2.86Z" style="fill:#2196f3"/><path d="M599.68,633.23l3.24-.54,3.69,1.84s.1,3.35.17,3.44-3,3.17-3.14,3.23l-2.38,1s-3.28.32-4.84-1l2.94-2.64Z" style="fill:#fff"/><path d="M568,621.24c-2.37,5.12-13.24,1-13.24,1a2,2,0,0,1-1.14-1.46l-.37-2a2,2,0,0,1,.25-1.39l1.94-3.22a9.42,9.42,0,0,1,3.9-3.58l3.72-1.84s3.55-10.85,9.32-11.76c0,0,4.59,4.66-3.48,15a13.86,13.86,0,0,1,3.62,4s15.26-8.88,24.9,10.37c9,17.84-8.33,16.73-14.21,15.89a4.44,4.44,0,0,1-3.46-2.46c-.66-1.43-.52-3.13,3.34-3.63" style="fill:none;stroke:#0d47a1;stroke-linecap:round;stroke-linejoin:round;stroke-width:2px"/><path d="M559.11,626.88a7.39,7.39,0,0,0,6.67,6.82s1.46,1.8,0,3.33c0,0-1.35,1.17-2.45,2.26a2,2,0,0,0,1.41,3.42h3.89a2,2,0,0,0,1.7-.93l3.71-5.89,1.26-4" style="fill:none;stroke:#0d47a1;stroke-linecap:round;stroke-linejoin:round;stroke-width:2px"/><path d="M603.11,633.7s4.91-.11,3.38,3.86a5.13,5.13,0,0,1-5,3.63" style="fill:none;stroke:#0d47a1;stroke-linecap:round;stroke-linejoin:round;stroke-width:2px"/><path d="M560.42,605.92c-.15-3.06.75-7.23,4-8.92,0,0,1.94-.23,3.16,3.19" style="fill:none;stroke:#0d47a1;stroke-linecap:round;stroke-linejoin:round;stroke-width:2px"/><path d="M663.07,622l-1.75,6.1-6.78,1a14,14,0,0,0,.16,2.57c.17.38,1.93,3,1.93,3l3,2,1.1,1.16-.92,1.53s-2.17,1.64-2.06,1.8.65,1.31.65,1.31l2.85.3s2.3-.81,2.32-.87,2.08-3.37,2.08-3.37,2.76-.74,3.74,1.16l2.95-2.58L674,629s-1.29-2.54-1.31-2.63-3.7-3.53-3.7-3.53l-4.14,1.3Z" style="fill:#fff"/><path d="M658.37,618.81,654,621.36l-2.75,4.31s.59,2.87.66,2.85,5.51,1.14,5.51,1.14l4.57-1.82Z" style="fill:#fff"/><path d="M664.22,618.31l1.3-3.76L665,610.8l-2.39,1-1.35.94s-.81-2-2.09-2l-2.28,2.69-.55,3.29-.62.64s.19,2.12.62,2.22a2.57,2.57,0,0,0,.79,0l-2.4,1.33s-1.69,5.88,3.65,8.64c1.64.09,2.21.45,3.85-1a7.17,7.17,0,0,0,.4-7.34h0c0-.15,0-.27,0-.27Z" style="fill:#90a4ae"/><path d="M667.11,623.21s9.38,6.27,3,15.11l-.73,2.06,1.17,1.36,4.34,1.26,5.25-.44,3.55-2.58.3-2.72-.7-4.1-2.3-3.94-3.21-3.78-3.32-2Z" style="fill:#90a4ae"/><path d="M683.77,636.16l2.27-.38,2.58,1.29s.08,2.34.13,2.41-2.14,2.22-2.2,2.26-1.67.67-1.67.67-2.29.23-3.39-.67l2.06-1.85Z" style="fill:#fff"/><path d="M661.6,627.77c-1.66,3.58-9.27.72-9.27.72a1.41,1.41,0,0,1-.8-1l-.26-1.41a1.45,1.45,0,0,1,.18-1l1.36-2.25a6.61,6.61,0,0,1,2.73-2.51l2.6-1.29s2.48-7.6,6.53-8.23c0,0,3.21,3.26-2.44,10.52a9.75,9.75,0,0,1,2.53,2.82s10.68-6.21,17.44,7.26c6.26,12.49-5.84,11.71-10,11.13a3.13,3.13,0,0,1-2.43-1.73c-.46-1-.36-2.19,2.35-2.54" style="fill:none;stroke:#37474f;stroke-linecap:round;stroke-linejoin:round;stroke-width:2px"/><path d="M655.38,631.71a5.16,5.16,0,0,0,4.67,4.78,1.8,1.8,0,0,1,0,2.33s-.95.82-1.72,1.58a1.4,1.4,0,0,0,1,2.4H662a1.43,1.43,0,0,0,1.19-.65l2.6-4.13.88-2.77" style="fill:none;stroke:#37474f;stroke-linecap:round;stroke-linejoin:round;stroke-width:2px"/><path d="M686.18,636.49s3.43-.08,2.36,2.7a3.58,3.58,0,0,1-3.53,2.54" style="fill:none;stroke:#37474f;stroke-linecap:round;stroke-linejoin:round;stroke-width:2px"/><path d="M656.3,617c-.11-2.14.52-5.06,2.82-6.24,0,0,1.35-.16,2.21,2.23" style="fill:none;stroke:#37474f;stroke-linecap:round;stroke-linejoin:round;stroke-width:2px"/><path d="M753.07,522l-1.75,6.1-6.78,1a14,14,0,0,0,.16,2.57c.17.38,1.93,3,1.93,3l3,2,1.1,1.16-.92,1.53s-2.17,1.64-2.06,1.8.65,1.31.65,1.31l2.85.3s2.3-.81,2.32-.87,2.08-3.37,2.08-3.37,2.76-.74,3.74,1.16l2.95-2.58L764,529s-1.29-2.54-1.31-2.63-3.7-3.53-3.7-3.53l-4.14,1.3Z" style="fill:#fff"/><path d="M748.37,518.81,744,521.36l-2.75,4.31s.59,2.87.66,2.85,5.51,1.14,5.51,1.14l4.57-1.82Z" style="fill:#fff"/><path d="M754.22,518.31l1.3-3.76L755,510.8l-2.39,1-1.35.94s-.81-2-2.09-2l-2.28,2.69-.55,3.29-.62.64s.19,2.12.62,2.22a2.57,2.57,0,0,0,.79,0l-2.4,1.33s-1.69,5.88,3.65,8.64c1.64.09,2.21.45,3.85-1a7.17,7.17,0,0,0,.4-7.34h0c0-.15,0-.27,0-.27Z" style="fill:#9c27b0"/><path d="M757.11,523.21s9.38,6.27,3,15.11l-.73,2.06,1.17,1.36,4.34,1.26,5.25-.44,3.55-2.58.3-2.72-.7-4.1-2.3-3.94-3.21-3.78-3.32-2Z" style="fill:#9c27b0"/><path d="M773.77,536.16l2.27-.38,2.58,1.29s.08,2.34.13,2.41-2.14,2.22-2.2,2.26-1.67.67-1.67.67-2.29.23-3.39-.67l2.06-1.85Z" style="fill:#fff"/><path d="M751.6,527.77c-1.66,3.58-9.27.72-9.27.72a1.41,1.41,0,0,1-.8-1l-.26-1.41a1.45,1.45,0,0,1,.18-1l1.36-2.25a6.61,6.61,0,0,1,2.73-2.51l2.6-1.29s2.48-7.6,6.53-8.23c0,0,3.21,3.26-2.44,10.52a9.75,9.75,0,0,1,2.53,2.82s10.68-6.21,17.44,7.26c6.26,12.49-5.84,11.71-10,11.13a3.13,3.13,0,0,1-2.43-1.73c-.46-1-.36-2.19,2.35-2.54" style="fill:none;stroke:#4a148c;stroke-linecap:round;stroke-linejoin:round;stroke-width:2px"/><path d="M745.38,531.71a5.16,5.16,0,0,0,4.67,4.78,1.8,1.8,0,0,1,0,2.33s-.95.82-1.72,1.58a1.4,1.4,0,0,0,1,2.4H752a1.43,1.43,0,0,0,1.19-.65l2.6-4.13.88-2.77" style="fill:none;stroke:#4a148c;stroke-linecap:round;stroke-linejoin:round;stroke-width:2px"/><path d="M776.18,536.49s3.43-.08,2.36,2.7a3.58,3.58,0,0,1-3.53,2.54" style="fill:none;stroke:#4a148c;stroke-linecap:round;stroke-linejoin:round;stroke-width:2px"/><path d="M746.3,517c-.11-2.14.52-5.06,2.82-6.24,0,0,1.35-.16,2.21,2.23" style="fill:none;stroke:#4a148c;stroke-linecap:round;stroke-linejoin:round;stroke-width:2px"/><path d="M750.1,613l-2.49,8.71-9.7,1.45a20.77,20.77,0,0,0,.23,3.68c.25.53,2.76,4.31,2.76,4.31l4.36,2.81,1.56,1.66-1.31,2.18s-3.1,2.34-2.94,2.57.92,1.87.92,1.87l4.08.43s3.29-1.15,3.32-1.24,3-4.81,3-4.81,3.93-1.07,5.34,1.65l4.22-3.68L765.67,623s-1.85-3.63-1.88-3.75-5.28-5.05-5.28-5.05l-5.9,1.86Z" style="fill:#fff"/><path d="M743.39,608.44l-6.23,3.65-3.93,6.15s.84,4.1.94,4.07S742,624,742,624l6.53-2.61Z" style="fill:#fff"/><path d="M751.74,607.73l1.86-5.38-.82-5.35-3.41,1.46-1.92,1.33s-1.17-2.83-3-2.79l-3.26,3.84-.78,4.7-.88.92s.27,3,.88,3.17a3.7,3.7,0,0,0,1.13-.08l-3.42,1.91s-2.42,8.4,5.21,12.33c2.35.13,3.15.66,5.49-1.48a10.24,10.24,0,0,0,.58-10.48h0c0-.22,0-.39,0-.39Z" style="fill:#9c27b0"/><path d="M755.87,614.72s13.4,9,4.24,21.59l-1,2.94,1.67,2L767,643l7.5-.62,5.06-3.69.43-3.9-1-5.85-3.29-5.63-4.59-5.4-4.74-2.86Z" style="fill:#9c27b0"/><path d="M779.68,633.23l3.24-.54,3.69,1.84s.1,3.35.17,3.44-3,3.17-3.14,3.23l-2.38,1s-3.28.32-4.84-1l2.94-2.64Z" style="fill:#fff"/><path d="M748,621.24c-2.37,5.12-13.24,1-13.24,1a2,2,0,0,1-1.14-1.46l-.37-2a2,2,0,0,1,.25-1.39l1.94-3.22a9.42,9.42,0,0,1,3.9-3.58l3.72-1.84s3.55-10.85,9.32-11.76c0,0,4.59,4.66-3.48,15a13.86,13.86,0,0,1,3.62,4s15.26-8.88,24.9,10.37c9,17.84-8.33,16.73-14.21,15.89a4.44,4.44,0,0,1-3.46-2.46c-.66-1.43-.52-3.13,3.34-3.63" style="fill:none;stroke:#4a148c;stroke-linecap:round;stroke-linejoin:round;stroke-width:2px"/><path d="M739.11,626.88a7.39,7.39,0,0,0,6.67,6.82s1.46,1.8,0,3.33c0,0-1.35,1.17-2.45,2.26a2,2,0,0,0,1.41,3.42h3.89a2,2,0,0,0,1.7-.93l3.71-5.89,1.26-4" style="fill:none;stroke:#4a148c;stroke-linecap:round;stroke-linejoin:round;stroke-width:2px"/><path d="M783.11,633.7s4.91-.11,3.38,3.86a5.13,5.13,0,0,1-5,3.63" style="fill:none;stroke:#4a148c;stroke-linecap:round;stroke-linejoin:round;stroke-width:2px"/><path d="M740.42,605.92c-.15-3.06.75-7.23,4-8.92,0,0,1.94-.23,3.16,3.19" style="fill:none;stroke:#4a148c;stroke-linecap:round;stroke-linejoin:round;stroke-width:2px"/><path d="M483.07,622l-1.75,6.1-6.78,1a14,14,0,0,0,.16,2.57c.17.38,1.93,3,1.93,3l3.05,2,1.1,1.16-.92,1.53s-2.17,1.64-2.06,1.8.65,1.31.65,1.31l2.85.3s2.3-.81,2.32-.87,2.08-3.37,2.08-3.37,2.76-.74,3.74,1.16l2.95-2.58L494,629s-1.29-2.54-1.31-2.63-3.7-3.53-3.7-3.53l-4.14,1.3Z" style="fill:#fff"/><path d="M478.37,618.81,474,621.36l-2.75,4.31s.59,2.87.66,2.85,5.51,1.14,5.51,1.14l4.57-1.82Z" style="fill:#fff"/><path d="M484.22,618.31l1.3-3.76L485,610.8l-2.39,1-1.35.94s-.81-2-2.09-2l-2.28,2.69-.55,3.29-.62.64s.19,2.12.62,2.22a2.57,2.57,0,0,0,.79,0l-2.4,1.33s-1.69,5.88,3.65,8.64c1.64.09,2.21.45,3.85-1a7.17,7.17,0,0,0,.4-7.34h0c0-.15,0-.27,0-.27Z" style="fill:#ffeb3b"/><path d="M487.11,623.21s9.38,6.27,3,15.11l-.73,2.06,1.17,1.36,4.34,1.26,5.25-.44,3.55-2.58.3-2.72-.7-4.1-2.3-3.94-3.21-3.78-3.32-2Z" style="fill:#ffeb3b"/><path d="M503.77,636.16l2.27-.38,2.58,1.29s.08,2.34.13,2.41-2.14,2.22-2.2,2.26-1.67.67-1.67.67-2.29.23-3.39-.67l2.06-1.85Z" style="fill:#fff"/><path d="M481.6,627.77c-1.66,3.58-9.27.72-9.27.72a1.41,1.41,0,0,1-.8-1l-.26-1.41a1.45,1.45,0,0,1,.18-1l1.36-2.25a6.61,6.61,0,0,1,2.73-2.51l2.6-1.29s2.48-7.6,6.53-8.23c0,0,3.21,3.26-2.44,10.52a9.75,9.75,0,0,1,2.53,2.82s10.68-6.21,17.44,7.26c6.26,12.49-5.84,11.71-9.95,11.13a3.13,3.13,0,0,1-2.43-1.73c-.46-1-.36-2.19,2.35-2.54" style="fill:none;stroke:#f9a825;stroke-linecap:round;stroke-linejoin:round;stroke-width:2px"/><path d="M475.38,631.71a5.16,5.16,0,0,0,4.67,4.78,1.8,1.8,0,0,1,0,2.33s-.95.82-1.72,1.58a1.4,1.4,0,0,0,1,2.4H482a1.43,1.43,0,0,0,1.19-.65l2.6-4.13.88-2.77" style="fill:none;stroke:#f9a825;stroke-linecap:round;stroke-linejoin:round;stroke-width:2px"/><path d="M506.18,636.49s3.43-.08,2.36,2.7a3.58,3.58,0,0,1-3.53,2.54" style="fill:none;stroke:#f9a825;stroke-linecap:round;stroke-linejoin:round;stroke-width:2px"/><path d="M476.3,617c-.11-2.14.52-5.06,2.82-6.24,0,0,1.35-.16,2.21,2.23" style="fill:none;stroke:#f9a825;stroke-linecap:round;stroke-linejoin:round;stroke-width:2px"/><path d="M123.07,122.32l-1.75,6.09-6.78,1a14,14,0,0,0,.16,2.57c.17.37,1.93,3,1.93,3l3.05,2,1.1,1.16-.92,1.53s-2.17,1.64-2.06,1.79.65,1.32.65,1.32l2.85.3s2.3-.81,2.32-.87,2.08-3.37,2.08-3.37,2.76-.75,3.74,1.16l2.95-2.58,1.58-8.16s-1.29-2.54-1.31-2.63-3.7-3.53-3.7-3.53l-4.14,1.3Z" style="fill:#fff"/><path d="M118.37,119.1,114,121.65l-2.75,4.3s.59,2.88.66,2.86,5.51,1.14,5.51,1.14l4.57-1.82Z" style="fill:#fff"/><path d="M124.22,118.6l1.3-3.77-.57-3.74-2.39,1-1.35.93s-.81-2-2.09-2l-2.28,2.69-.55,3.29-.62.64s.19,2.12.62,2.22a2.64,2.64,0,0,0,.79-.06l-2.4,1.34s-1.69,5.88,3.65,8.63c1.64.1,2.21.46,3.85-1a7.17,7.17,0,0,0,.4-7.34h0c0-.16,0-.27,0-.27Z" style="fill:#616161"/><path d="M127.11,123.49s9.38,6.28,3,15.12l-.73,2,1.17,1.37,4.34,1.26,5.25-.44,3.55-2.58.3-2.73-.7-4.09-2.3-3.94-3.21-3.79-3.32-2Z" style="fill:#616161"/><path d="M143.77,136.45l2.27-.38,2.58,1.29s.08,2.34.13,2.41-2.14,2.22-2.2,2.26l-1.67.67s-2.29.23-3.39-.67l2.06-1.85Z" style="fill:#fff"/><path d="M121.6,128.06c-1.66,3.58-9.27.72-9.27.72a1.43,1.43,0,0,1-.8-1l-.26-1.41a1.43,1.43,0,0,1,.18-1l1.36-2.25a6.55,6.55,0,0,1,2.73-2.51l2.6-1.29s2.48-7.6,6.53-8.23c0,0,3.21,3.26-2.44,10.52a9.75,9.75,0,0,1,2.53,2.82s10.68-6.21,17.44,7.26c6.26,12.49-5.84,11.71-9.95,11.13a3.15,3.15,0,0,1-2.43-1.73c-.46-1-.36-2.19,2.35-2.54" style="fill:none;stroke:#212121;stroke-linecap:round;stroke-linejoin:round;stroke-width:2px"/><path d="M115.38,132a5.17,5.17,0,0,0,4.67,4.78,1.8,1.8,0,0,1,0,2.33s-1,.82-1.72,1.58a1.4,1.4,0,0,0,1,2.4H122a1.41,1.41,0,0,0,1.19-.66l2.6-4.12.88-2.78" style="fill:none;stroke:#212121;stroke-linecap:round;stroke-linejoin:round;stroke-width:2px"/><path d="M146.18,136.78s3.43-.08,2.36,2.7A3.6,3.6,0,0,1,145,142" style="fill:none;stroke:#212121;stroke-linecap:round;stroke-linejoin:round;stroke-width:2px"/><path d="M116.3,117.33c-.11-2.14.52-5.06,2.82-6.24,0,0,1.35-.16,2.21,2.23" style="fill:none;stroke:#212121;stroke-linecap:round;stroke-linejoin:round;stroke-width:2px"/><line x1="130" y1="260" x2="130" y2="280" style="fill:none;stroke:#e6e6e6;stroke-linecap:square;stroke-miterlimit:10;stroke-width:10px"/><line x1="130" y1="360" x2="130" y2="380" style="fill:none;stroke:#e6e6e6;stroke-linecap:square;stroke-miterlimit:10;stroke-width:10px"/><line x1="130" y1="460" x2="130" y2="480" style="fill:none;stroke:#e6e6e6;stroke-linecap:square;stroke-miterlimit:10;stroke-width:10px"/><line x1="130" y1="560" x2="130" y2="580" style="fill:none;stroke:#e6e6e6;stroke-linecap:square;stroke-miterlimit:10;stroke-width:10px"/><line x1="310" y1="560" x2="310" y2="580" style="fill:none;stroke:#e6e6e6;stroke-linecap:square;stroke-miterlimit:10;stroke-width:10px"/><line x1="400" y1="560" x2="400" y2="580" style="fill:none;stroke:#e6e6e6;stroke-linecap:square;stroke-miterlimit:10;stroke-width:10px"/><line x1="400" y1="460" x2="400" y2="480" style="fill:none;stroke:#e6e6e6;stroke-linecap:square;stroke-miterlimit:10;stroke-width:10px"/><line x1="580" y1="460" x2="580" y2="480" style="fill:none;stroke:#e6e6e6;stroke-linecap:square;stroke-miterlimit:10;stroke-width:10px"/><line x1="580" y1="560" x2="580" y2="580" style="fill:none;stroke:#e6e6e6;stroke-linecap:square;stroke-miterlimit:10;stroke-width:10px"/><line x1="130" y1="160" x2="130" y2="180" style="fill:none;stroke:#e6e6e6;stroke-linecap:square;stroke-miterlimit:10;stroke-width:10px"/><line x1="580" y1="360" x2="580" y2="380" style="fill:none;stroke:#e6e6e6;stroke-linecap:square;stroke-miterlimit:10;stroke-width:10px"/><line x1="760" y1="555" x2="760" y2="580" style="fill:none;stroke:#e6e6e6;stroke-linecap:square;stroke-miterlimit:10;stroke-width:10px"/><path d="M170,220H570a10,10,0,0,1,10,10v50" style="fill:none;stroke:#4d4d4d;stroke-linecap:round;stroke-linejoin:round;stroke-width:2px"/><circle cx="170" cy="220" r="3.76" style="fill:#4d4d4d"/><polygon points="575.01 278.54 580 287.18 584.99 278.54 575.01 278.54" style="fill:#4d4d4d"/><path d="M170,320H390a10,10,0,0,1,10,10v50" style="fill:none;stroke:#4d4d4d;stroke-linecap:round;stroke-linejoin:round;stroke-width:2px"/><circle cx="170" cy="320" r="3.76" style="fill:#4d4d4d"/><polygon points="395.01 378.54 400 387.18 404.99 378.54 395.01 378.54" style="fill:#4d4d4d"/><path d="M170,420H300a10,10,0,0,1,10,10v50" style="fill:none;stroke:#4d4d4d;stroke-linecap:round;stroke-linejoin:round;stroke-width:2px"/><circle cx="170" cy="420" r="3.76" style="fill:#4d4d4d"/><polygon points="305.01 478.54 310 487.18 314.99 478.54 305.01 478.54" style="fill:#4d4d4d"/><path d="M620,420H750a10,10,0,0,1,10,10v50" style="fill:none;stroke:#4d4d4d;stroke-linecap:round;stroke-linejoin:round;stroke-width:2px"/><circle cx="620" cy="420" r="3.76" style="fill:#4d4d4d"/><polygon points="755.01 478.54 760 487.18 764.99 478.54 755.01 478.54" style="fill:#4d4d4d"/><path d="M170,520h40a10,10,0,0,1,10,10v50" style="fill:none;stroke:#4d4d4d;stroke-linecap:round;stroke-linejoin:round;stroke-width:2px"/><circle cx="170" cy="520" r="3.76" style="fill:#4d4d4d"/><polygon points="215.01 578.54 220 587.18 224.99 578.54 215.01 578.54" style="fill:#4d4d4d"/><path d="M440,520h40a10,10,0,0,1,10,10v50" style="fill:none;stroke:#4d4d4d;stroke-linecap:round;stroke-linejoin:round;stroke-width:2px"/><circle cx="440" cy="520" r="3.76" style="fill:#4d4d4d"/><polygon points="485.01 578.54 490 587.18 494.99 578.54 485.01 578.54" style="fill:#4d4d4d"/><path d="M620,520h40a10,10,0,0,1,10,10v50" style="fill:none;stroke:#4d4d4d;stroke-linecap:round;stroke-linejoin:round;stroke-width:2px"/><circle cx="620" cy="520" r="3.76" style="fill:#4d4d4d"/><polygon points="665.01 578.54 670 587.18 674.99 578.54 665.01 578.54" style="fill:#4d4d4d"/><line x1="60" y1="140" x2="60" y2="200" style="fill:none;stroke:#e6e6e6;stroke-linecap:square;stroke-miterlimit:10;stroke-width:10px"/><line x1="60" y1="240" x2="60" y2="300" style="fill:none;stroke:#e6e6e6;stroke-linecap:square;stroke-miterlimit:10;stroke-width:10px"/><line x1="60" y1="340" x2="60" y2="400" style="fill:none;stroke:#e6e6e6;stroke-linecap:square;stroke-miterlimit:10;stroke-width:10px"/><line x1="60" y1="440" x2="60" y2="500" style="fill:none;stroke:#e6e6e6;stroke-linecap:square;stroke-miterlimit:10;stroke-width:10px"/><line x1="60" y1="540" x2="60" y2="600" style="fill:none;stroke:#e6e6e6;stroke-linecap:square;stroke-miterlimit:10;stroke-width:10px"/><line x1="60" y1="75" x2="60" y2="100" style="fill:none;stroke:#e6e6e6;stroke-linecap:square;stroke-miterlimit:10;stroke-width:10px"/><rect x="40" y="580" width="40" height="80" rx="6" style="fill:#e6e6e6"/><rect x="40" y="480" width="40" height="80" rx="6" style="fill:#e6e6e6"/><rect x="40" y="380" width="40" height="80" rx="6" style="fill:#e6e6e6"/><rect x="40" y="280" width="40" height="80" rx="6" style="fill:#e6e6e6"/><rect x="40" y="180" width="40" height="80" rx="6" style="fill:#e6e6e6"/><rect x="40" y="80" width="40" height="80" rx="6" style="fill:#e6e6e6"/><path d="M59.54,126.48v-10.7l-3.16,1.3v-1.83L61,113.51h.62v13Z"/><path d="M55.78,226.53v-1.36l4.5-4.93a11.79,11.79,0,0,0,1.31-1.64,2.85,2.85,0,0,0,.45-1.54,2.07,2.07,0,0,0-.52-1.4,1.9,1.9,0,0,0-1.49-.58,2.15,2.15,0,0,0-1.6.64,2.44,2.44,0,0,0-.65,1.81v.14h-2v-.16A3.81,3.81,0,0,1,57,214.6,4.31,4.31,0,0,1,60,213.47a4.15,4.15,0,0,1,3,1A3.3,3.3,0,0,1,64.08,217a3.86,3.86,0,0,1-.7,2.27,19.07,19.07,0,0,1-1.68,2.06l-3.35,3.56H64.4v1.68Z"/><path d="M55.53,323v-.13h2V323a1.93,1.93,0,0,0,.63,1.53,2.49,2.49,0,0,0,1.69.54,2.46,2.46,0,0,0,1.69-.55,2.15,2.15,0,0,0,.61-1.7,2.12,2.12,0,0,0-.69-1.72,2.93,2.93,0,0,0-1.93-.58H58.45V319h1a2.4,2.4,0,0,0,1.7-.55,2.33,2.33,0,0,0,.09-3,2,2,0,0,0-1.4-.48,2.07,2.07,0,0,0-1.46.48,1.8,1.8,0,0,0-.52,1.39v.11h-2v-.1a3.27,3.27,0,0,1,1.08-2.47,4.73,4.73,0,0,1,5.78-.05,3.08,3.08,0,0,1,1.06,2.4,3.25,3.25,0,0,1-.49,1.74,3,3,0,0,1-1.5,1.23v0a3.22,3.22,0,0,1,1.77,1.1,3.16,3.16,0,0,1,.66,2,3.47,3.47,0,0,1-1.21,2.8,4.74,4.74,0,0,1-3.18,1,4.55,4.55,0,0,1-3.16-1A3.4,3.4,0,0,1,55.53,323Z"/><path d="M61.14,426.4v-9.79H61l-3.57,5.25h7.26v1.61H55.29v-1.32l5.91-8.54h1.88v12.8Z"/><path d="M55.67,523v-.11h2V523a1.79,1.79,0,0,0,.62,1.43,2.51,2.51,0,0,0,1.67.52,2.16,2.16,0,0,0,1.7-.72,3,3,0,0,0,.64-2,2.79,2.79,0,0,0-.65-2,2.19,2.19,0,0,0-1.69-.69,2.8,2.8,0,0,0-1.3.28,3.92,3.92,0,0,0-1,.77l-1.5-.69.65-6.38h6.86v1.71H58.41l-.35,3.34a4.87,4.87,0,0,1,1-.45,3.89,3.89,0,0,1,1.27-.2A3.93,3.93,0,0,1,63.15,519a4.19,4.19,0,0,1,1.16,3.14,4.13,4.13,0,0,1-4.37,4.4,4.53,4.53,0,0,1-3.16-1A3.28,3.28,0,0,1,55.67,523Z"/><path d="M55.6,621v-.29a7.55,7.55,0,0,1,1.85-5.34,6.89,6.89,0,0,1,5.34-2H63V615h-.19A5.2,5.2,0,0,0,59,616.31a5.81,5.81,0,0,0-1.38,4.31v.44a5,5,0,0,0,.72,3.07,2.27,2.27,0,0,0,1.87.9,2.08,2.08,0,0,0,1.73-.73,3.84,3.84,0,0,0,0-4.09,2.12,2.12,0,0,0-1.74-.72,2.68,2.68,0,0,0-1.85.71,2.61,2.61,0,0,0-.78,2h-.72a4.62,4.62,0,0,1,1-3.12,3.45,3.45,0,0,1,2.77-1.19,3.65,3.65,0,0,1,2.85,1.19,4.53,4.53,0,0,1,1.06,3.13,4.32,4.32,0,0,1-1.2,3.17,4.22,4.22,0,0,1-3.15,1.22,4.41,4.41,0,0,1-3.24-1.33C56,624.41,55.6,623,55.6,621Z"/><path d="M35.09,60V47.24h2.63l3.43,9.11a5.79,5.79,0,0,1,.2.59c0,.21.1.41.15.59h.07c0-.18.09-.38.15-.59a5.87,5.87,0,0,1,.19-.59l3.43-9.11H48V60H46V51.22c0-.18,0-.38,0-.61s0-.43,0-.61H46a4.48,4.48,0,0,1-.15.61c-.07.23-.13.43-.2.61L42.3,60H40.6l-3.33-8.82c-.07-.18-.14-.38-.21-.61a4.48,4.48,0,0,1-.15-.61h-.07a5.51,5.51,0,0,1,0,.61c0,.23,0,.43,0,.61V60Z"/><path d="M50.13,55.55v-.28a4.83,4.83,0,0,1,1.23-3.44,4.72,4.72,0,0,1,6.53,0,4.83,4.83,0,0,1,1.23,3.44v.28A4.85,4.85,0,0,1,57.89,59a4.72,4.72,0,0,1-6.53,0A4.85,4.85,0,0,1,50.13,55.55Zm2-.33v.38a3.81,3.81,0,0,0,.63,2.27,2.18,2.18,0,0,0,1.87.88,2.15,2.15,0,0,0,1.85-.88,3.81,3.81,0,0,0,.63-2.27v-.38A3.83,3.83,0,0,0,56.48,53a2.4,2.4,0,0,0-3.71,0A3.76,3.76,0,0,0,52.13,55.22Z"/><path d="M61.08,60V50.78h1.81L63,51.92h0a3.38,3.38,0,0,1,1.18-1,3.51,3.51,0,0,1,1.59-.36,3.18,3.18,0,0,1,2.26.8,3.63,3.63,0,0,1,.85,2.72V60h-2V54.09a2,2,0,0,0-.45-1.47,1.79,1.79,0,0,0-1.3-.43,2.14,2.14,0,0,0-1.26.39,2.47,2.47,0,0,0-.87,1V60Z"/><path d="M70,52.25V50.78h5.42v1.47Zm1.57,5.34V48.53h2v9a1.26,1.26,0,0,0,.24.87,1,1,0,0,0,.73.26,2.24,2.24,0,0,0,.46-.05,4.75,4.75,0,0,0,.46-.14V60a2.78,2.78,0,0,1-.59.18,3.48,3.48,0,0,1-.81.08,2.45,2.45,0,0,1-1.78-.65A2.8,2.8,0,0,1,71.61,57.59Z"/><path d="M77.12,60V46.56h2V52a3.38,3.38,0,0,1,1.2-1,3.59,3.59,0,0,1,1.66-.37,3,3,0,0,1,2.13.8,3.6,3.6,0,0,1,.84,2.68V60H83V54.12a2,2,0,0,0-.46-1.48,1.8,1.8,0,0,0-1.3-.45,2.1,2.1,0,0,0-1.27.39,2.72,2.72,0,0,0-.84,1.05V60Z"/><line x1="830" y1="140" x2="830" y2="200" style="fill:none;stroke:#e6e6e6;stroke-linecap:square;stroke-miterlimit:10;stroke-width:10px"/><line x1="830" y1="240" x2="830" y2="300" style="fill:none;stroke:#e6e6e6;stroke-linecap:square;stroke-miterlimit:10;stroke-width:10px"/><line x1="830" y1="340" x2="830" y2="400" style="fill:none;stroke:#e6e6e6;stroke-linecap:square;stroke-miterlimit:10;stroke-width:10px"/><line x1="830" y1="440" x2="830" y2="500" style="fill:none;stroke:#e6e6e6;stroke-linecap:square;stroke-miterlimit:10;stroke-width:10px"/><line x1="830" y1="540" x2="830" y2="600" style="fill:none;stroke:#e6e6e6;stroke-linecap:square;stroke-miterlimit:10;stroke-width:10px"/><line x1="830" y1="75" x2="830" y2="100" style="fill:none;stroke:#e6e6e6;stroke-linecap:square;stroke-miterlimit:10;stroke-width:10px"/><rect x="810" y="580" width="40" height="80" rx="6" style="fill:#e6e6e6"/><rect x="810" y="480" width="40" height="80" rx="6" style="fill:#e6e6e6"/><rect x="810" y="380" width="40" height="80" rx="6" style="fill:#e6e6e6"/><rect x="810" y="280" width="40" height="80" rx="6" style="fill:#e6e6e6"/><rect x="810" y="180" width="40" height="80" rx="6" style="fill:#e6e6e6"/><rect x="810" y="80" width="40" height="80" rx="6" style="fill:#e6e6e6"/><path d="M829.54,126.48v-10.7l-3.16,1.3v-1.83l4.57-1.74h.62v13Z"/><path d="M829.54,226.53v-10.7l-3.16,1.3V215.3l4.57-1.73h.62v13Z"/><path d="M825.78,326.4V325l4.5-4.93a11.63,11.63,0,0,0,1.31-1.64,2.88,2.88,0,0,0,.45-1.55,2,2,0,0,0-.52-1.39A1.9,1.9,0,0,0,830,315a2.15,2.15,0,0,0-1.6.64,2.44,2.44,0,0,0-.64,1.81v.14h-2v-.16a3.81,3.81,0,0,1,1.2-2.91,4.26,4.26,0,0,1,3.07-1.13,4.15,4.15,0,0,1,3,1,3.28,3.28,0,0,1,1.08,2.47,3.81,3.81,0,0,1-.7,2.26,19.2,19.2,0,0,1-1.67,2.07l-3.36,3.56h6v1.68Z"/><path d="M825.53,423v-.13h2V423a1.93,1.93,0,0,0,.63,1.53,2.49,2.49,0,0,0,1.69.54,2.46,2.46,0,0,0,1.69-.55,2.15,2.15,0,0,0,.61-1.7,2.12,2.12,0,0,0-.69-1.72,2.93,2.93,0,0,0-1.93-.58h-1.06V419h1a2.4,2.4,0,0,0,1.7-.55,2.33,2.33,0,0,0,.09-3,2,2,0,0,0-1.4-.48,2.09,2.09,0,0,0-1.46.48,1.8,1.8,0,0,0-.52,1.39v.11h-2v-.1a3.27,3.27,0,0,1,1.08-2.47,4.73,4.73,0,0,1,5.78-.05,3.08,3.08,0,0,1,1.06,2.4,3.25,3.25,0,0,1-.49,1.74,3,3,0,0,1-1.5,1.23v0a3.22,3.22,0,0,1,1.77,1.1,3.16,3.16,0,0,1,.66,2,3.47,3.47,0,0,1-1.21,2.8,4.74,4.74,0,0,1-3.18,1,4.55,4.55,0,0,1-3.16-1A3.4,3.4,0,0,1,825.53,423Z"/><path d="M825.68,523v-.11h2V523a1.79,1.79,0,0,0,.62,1.43,2.51,2.51,0,0,0,1.67.52,2.16,2.16,0,0,0,1.7-.72,3,3,0,0,0,.64-2,2.79,2.79,0,0,0-.65-2,2.19,2.19,0,0,0-1.69-.69,2.8,2.8,0,0,0-1.3.28,3.92,3.92,0,0,0-1,.77l-1.5-.69.65-6.38h6.86v1.71h-5.22l-.35,3.34a4.87,4.87,0,0,1,1-.45,3.89,3.89,0,0,1,1.27-.2,3.93,3.93,0,0,1,2.85,1.13,4.19,4.19,0,0,1,1.16,3.14,4.13,4.13,0,0,1-4.37,4.4,4.53,4.53,0,0,1-3.16-1A3.27,3.27,0,0,1,825.68,523Z"/><path d="M825.69,623a3,3,0,0,1,.67-2,3.93,3.93,0,0,1,1.64-1.18v0a3.61,3.61,0,0,1-1.34-1.13,3,3,0,0,1-.56-1.84,3.17,3.17,0,0,1,1.11-2.52,4.53,4.53,0,0,1,5.59,0,3.17,3.17,0,0,1,1.1,2.53,3.11,3.11,0,0,1-.53,1.83,3.49,3.49,0,0,1-1.34,1.14v0a3.62,3.62,0,0,1,1.63,1.17,3.14,3.14,0,0,1,.65,2,3.28,3.28,0,0,1-1.22,2.71,4.78,4.78,0,0,1-3.08,1,4.88,4.88,0,0,1-3.1-1A3.28,3.28,0,0,1,825.69,623Zm2-.12a2.11,2.11,0,0,0,.62,1.6,2.6,2.6,0,0,0,3.35,0,2.14,2.14,0,0,0,.61-1.6,2.22,2.22,0,0,0-.6-1.62,2.6,2.6,0,0,0-3.37,0A2.19,2.19,0,0,0,827.71,622.83Zm.35-5.9a2.2,2.2,0,0,0,.52,1.51,2,2,0,0,0,2.85,0,2.24,2.24,0,0,0,.51-1.51,2.12,2.12,0,0,0-.52-1.48,1.79,1.79,0,0,0-1.41-.57,1.84,1.84,0,0,0-1.43.57A2.12,2.12,0,0,0,828.06,616.93Z"/><path d="M810.73,60V47.24h4.45a4.75,4.75,0,0,1,3.31,1.06,4.23,4.23,0,0,1,0,5.82,4.66,4.66,0,0,1-3.31,1.08h-2.42V60Zm2-6.44h2.34a2.41,2.41,0,0,0,2-.68,2.93,2.93,0,0,0,0-3.42,2.47,2.47,0,0,0-2-.66h-2.34Z"/><path d="M820.76,57.31a2.52,2.52,0,0,1,1.15-2.23,5.08,5.08,0,0,1,2.89-.79h2V53.7a1.9,1.9,0,0,0-.39-1.24A1.69,1.69,0,0,0,825,52a2,2,0,0,0-1.4.39,1.26,1.26,0,0,0-.42.94v.07h-1.94v-.07a2.44,2.44,0,0,1,1-2,4.36,4.36,0,0,1,2.78-.82,4.11,4.11,0,0,1,2.69.79,2.92,2.92,0,0,1,1,2.39v4.24a6,6,0,0,0,.09,1.07,4.5,4.5,0,0,0,.26.89V60h-1.91a2.36,2.36,0,0,1-.21-.56,3.39,3.39,0,0,1-.13-.68,2.58,2.58,0,0,1-1,1,3.68,3.68,0,0,1-1.88.43,3.48,3.48,0,0,1-2.25-.73A2.62,2.62,0,0,1,820.76,57.31Zm2-.14a1.59,1.59,0,0,0,.42,1.16,1.85,1.85,0,0,0,1.33.42,2.39,2.39,0,0,0,1.62-.61,1.81,1.81,0,0,0,.7-1.36V55.6H825a3,3,0,0,0-1.74.42A1.37,1.37,0,0,0,822.72,57.17Z"/><path d="M831.08,48.07a1.09,1.09,0,0,1,.31-.8,1.35,1.35,0,0,1,1.77,0,1.2,1.2,0,0,1,0,1.59,1.38,1.38,0,0,1-1.77,0A1.08,1.08,0,0,1,831.08,48.07Zm.21,12V50.78h2V60Z"/><path d="M835.82,60V50.78h1.81l.07,1.13h0a3.47,3.47,0,0,1,.87-1,2,2,0,0,1,1.28-.42,1.84,1.84,0,0,1,.39,0l.28.08v1.77l-.35-.06-.41,0a2,2,0,0,0-1.25.4,2.4,2.4,0,0,0-.78,1V60Z"/><path d="M841.51,57.24h1.94v.07a1.28,1.28,0,0,0,.54,1.13,2.56,2.56,0,0,0,1.44.37,2.34,2.34,0,0,0,1.39-.36,1.07,1.07,0,0,0,.5-.92,1,1,0,0,0-.43-.87A6.53,6.53,0,0,0,845,56a6,6,0,0,1-2.37-1,2.13,2.13,0,0,1-.84-1.79,2.37,2.37,0,0,1,1-2,4.18,4.18,0,0,1,2.64-.76,4.29,4.29,0,0,1,2.66.77,2.47,2.47,0,0,1,1,2.08v.07H847.1v-.11a1.15,1.15,0,0,0-.43-1,2,2,0,0,0-1.31-.36,2.09,2.09,0,0,0-1.28.32,1,1,0,0,0-.4.8.86.86,0,0,0,.47.77,8.08,8.08,0,0,0,2,.63,5.56,5.56,0,0,1,2.33,1,2.33,2.33,0,0,1,.8,1.89,2.59,2.59,0,0,1-1,2.09,4.44,4.44,0,0,1-2.87.79,4.61,4.61,0,0,1-2.91-.8,2.65,2.65,0,0,1-1-2.2Z"/></svg>